<?xml version="1.0" encoding="utf-8"?>
<!-- Generator: Adobe Illustrator 25.4.1, SVG Export Plug-In . SVG Version: 6.00 Build 0)  -->
<svg version="1.1" id="Calque_1" xmlns="http://www.w3.org/2000/svg" xmlns:xlink="http://www.w3.org/1999/xlink" x="0px" y="0px"
	 viewBox="0 0 376.3 307.4" style="enable-background:new 0 0 376.3 307.4;" xml:space="preserve">
<style type="text/css">
	.st0{fill:#2D0404;}
	.st1{fill:#FFD31A;}
	.st2{fill:#EA5454;}
	.st3{fill:#EFEAEF;}
</style>
<g>
	<g>
		<g>
			<g>
				<g>
					<g>
						<path class="st0" d="M9.8,126c0-16.8,0-33.8,0-51s0-34.2,0-51c6.2,0,12.4,0,18.7,0c6.2,0,12.4,0,18.5,0
							c7.7,0,14.4,1.5,20.1,4.4c5.7,3,10.1,7.1,13.4,12.4c3.2,5.3,4.8,11.5,4.8,18.6c0,7-1.6,13.2-4.7,18.5s-7.5,9.4-12.9,12.3
							C62.1,93.1,56,94.5,49,94.5c-2.2,0-4.4,0-6.5,0c-2.2,0-4.3,0-6.5,0c0,5.2,0,10.5,0,15.8s0,10.6,0,15.8c-4.3,0-8.7,0-13,0
							C18.5,126,14.1,126,9.8,126z M47,47.5c-1.8,0-3.6,0-5.5,0s-3.7,0-5.5,0c0,4,0,8,0,12.1s0,8.1,0,12.1c2,0,4.1,0,6.2,0
							c2.1,0,4.2,0,6.2,0c3.1,0,5.6-1.1,7.6-3.5c2-2.3,2.9-5.1,2.9-8.5c0-3.5-1.1-6.4-3.2-8.7C53.7,48.7,50.7,47.5,47,47.5z"/>
						<path class="st0" d="M97.2,126c0-12.8,0-25.7,0-38.8s0-26,0-38.8c4.1,0,8.2,0,12.5,0c4.2,0,8.3,0,12.3,0c0,0.7,0,1.4,0,2.1
							c0,0.7,0,1.4,0,2.1c3.1-2.2,6.6-3.8,10.5-5c3.9-1.1,8.1-1.4,12.8-0.9c0,4,0,8.1,0,12.2s0,8.2,0,12.2c-7.9-1.1-13.8-0.4-17.5,2
							c-3.8,2.5-5.7,6.4-5.7,11.9c0,6.7,0,13.5,0,20.4s0,13.8,0,20.5c-4,0-8.1,0-12.3,0C105.4,126,101.3,126,97.2,126z"/>
						<path class="st0" d="M193.2,128.4c-5.8,0-11.2-1-16.2-3.1c-5-2-9.4-5-13-8.7c-3.7-3.8-6.6-8.1-8.6-13.1
							c-2.1-5-3.1-10.4-3.1-16.3s1-11.3,3.1-16.4c2-5,4.9-9.3,8.6-13c3.7-3.7,8-6.6,13-8.6s10.4-3.1,16.2-3.1c5.9,0,11.3,1,16.3,3.1
							s9.3,4.9,13,8.6c3.7,3.7,6.6,8.1,8.6,13c2,5,3.1,10.5,3.1,16.4s-1,11.4-3.1,16.3c-2.1,5-4.9,9.4-8.6,13.1
							c-3.7,3.8-8,6.7-13,8.7C204.5,127.4,199.1,128.4,193.2,128.4z M193.2,106c4.9,0,8.8-1.8,11.8-5.3c2.9-3.5,4.4-8.1,4.4-13.6
							c0-5.6-1.5-10.1-4.4-13.6c-3-3.5-6.9-5.2-11.8-5.2c-4.9,0-8.8,1.7-11.8,5.2s-4.4,8-4.4,13.6c0,5.5,1.5,10,4.4,13.6
							C184.4,104.3,188.3,106,193.2,106z"/>
						<path class="st0" d="M298.2,126c0-0.8,0-1.6,0-2.3s0-1.5,0-2.2c-2.5,2.1-5.3,3.7-8.5,4.9c-3.2,1.1-6.5,1.7-10.1,1.7
							c-5.1,0-9.9-1-14.4-3s-8.5-4.8-11.9-8.5c-3.5-3.6-6.2-8-8.1-13c-2-5-2.9-10.5-2.9-16.5c0-6.1,1-11.6,2.9-16.7
							c1.9-5,4.6-9.3,8.1-12.9c3.5-3.6,7.4-6.4,11.9-8.3s9.2-2.9,14.2-2.9c3.6,0,7,0.6,10.2,1.7c3.2,1.2,6,2.7,8.5,4.7
							c0-6,0-12,0-18.1s0-12.2,0-18.2c4.1,0,8.2,0,12.5,0s8.3,0,12.3,0c0,18.1,0,36.4,0,54.8s0,36.7,0,54.8c-4,0-8.1,0-12.3,0
							S302.3,126,298.2,126z M282.9,106.2c4.8,0,8.6-1.7,11.5-5.2s4.4-8.1,4.4-13.8s-1.5-10.3-4.4-13.7c-2.9-3.4-6.8-5.2-11.5-5.2
							c-4.9,0-8.8,1.7-11.6,5.1c-2.8,3.4-4.3,8-4.3,13.8s1.4,10.4,4.3,13.9S278,106.2,282.9,106.2z"/>
						<path class="st1" d="M353.8,128.4c-2.9,0-5.6-0.7-8-2.1c-2.5-1.4-4.4-3.3-5.8-5.7c-1.4-2.4-2.1-5-2.1-7.8s0.7-5.4,2.1-7.7
							c1.4-2.3,3.3-4.2,5.8-5.6c2.4-1.4,5.1-2.1,8-2.1s5.5,0.7,7.9,2.1c2.3,1.4,4.2,3.3,5.7,5.6c1.4,2.4,2.2,4.9,2.2,7.7
							c0,2.8-0.7,5.4-2.2,7.8s-3.4,4.3-5.7,5.7C359.4,127.7,356.7,128.4,353.8,128.4z"/>
					</g>
				</g>
			</g>
		</g>
		<g>
			<g>
				<g>
					<g>
						<path class="st0" d="M320.8,205.4c0,6.3-1.1,12-3.2,17c-2.2,5.1-5.2,9.4-9,13c-3.9,3.6-8.4,6.4-13.5,8.2
							c-5.2,1.9-10.7,2.8-16.7,2.8c-6.1,0-11.7-1-16.8-2.8s-9.5-4.6-13.3-8.2c-3.8-3.5-6.7-7.8-8.8-12.8s-3.1-10.7-3.1-17
							c0-10.5,0-21.1,0-31.8s0-21.3,0-31.8c4.4,0,8.8,0,13.2,0s8.7,0,13,0c0,10.3,0,20.7,0,31c0,10.4,0,20.8,0,31
							c0,5.4,1.5,9.8,4.5,13c3,3.3,6.8,5,11.5,5s8.5-1.6,11.5-5c2.9-3.3,4.4-7.6,4.4-13c0-10.3,0-20.6,0-31s0-20.7,0-31
							c4.4,0,8.8,0,13.2,0c4.4,0,8.7,0,13,0c0,10.4,0,21,0,31.6C320.8,184.5,320.8,195,320.8,205.4z"/>
						<path class="st0" d="M339.6,244.1c0-16.8,0-33.8,0-51s0-34.2,0-51c4.4,0,8.8,0,13.2,0c4.4,0,8.7,0,13,0c0,16.8,0,33.8,0,51
							s0,34.2,0,51c-4.3,0-8.7,0-13,0C348.4,244.1,344,244.1,339.6,244.1z"/>
					</g>
				</g>
			</g>
		</g>
	</g>
</g>
<g>
	<g>
		<rect x="9.7" y="179" class="st1" width="67.8" height="67.8"/>
	</g>
	<g>
		<rect x="77.5" y="179" class="st2" width="67.8" height="67.8"/>
	</g>
	<g>
		<rect x="145.3" y="179" class="st3" width="67.8" height="67.8"/>
	</g>
	<g>
		<rect x="145.3" y="179" class="st0" width="67.8" height="67.8"/>
	</g>
</g>
</svg>
